HIERARCHY
ROOT hip
{
	OFFSET 0.000000 0.000000 0.000000 
	CHANNELS 6 Xposition Yposition Zposition Xrotation Zrotation Yrotation
	JOINT abdomen
	{
		OFFSET 0.000000 3.402643 0.000000 
		CHANNELS 3 Xrotation Zrotation Yrotation
		JOINT chest
		{
			OFFSET 0.000000 8.438565 -0.680529 
			CHANNELS 3 Xrotation Zrotation Yrotation
			JOINT neck
			{
				OFFSET 0.000000 10.207942 -0.272212 
				CHANNELS 3 Xrotation Zrotation Yrotation
				JOINT head
				{
					OFFSET 0.000000 3.130431 0.000000 
					CHANNELS 3 Xrotation Zrotation Yrotation
					End Site
					{
						OFFSET 0.000000 3.130435 0.000000 
					}
				}
			}
			JOINT lCollar
			{
				OFFSET 3.470700 6.669187 -0.816635 
				CHANNELS 3 Yrotation Zrotation Xrotation
				JOINT lShldr
				{
					OFFSET 3.198488 0.000000 0.000000 
					CHANNELS 3 Zrotation Yrotation Xrotation
					JOINT lForeArm
					{
						OFFSET 10.139888 0.000000 0.000000 
						CHANNELS 3 Yrotation Zrotation Xrotation
						JOINT lHand
						{
							OFFSET 8.370511 0.000000 0.000000 
							CHANNELS 3 Zrotation Yrotation Xrotation
							End Site
							{
								OFFSET 4.083176 0.000000 0.000000 
							}
						}
					}
				}
			}
			JOINT rCollar
			{
				OFFSET -3.470700 6.669187 -0.816635 
				CHANNELS 3 Yrotation Zrotation Xrotation
				JOINT rShldr
				{
					OFFSET -3.198488 0.000000 0.000000 
					CHANNELS 3 Zrotation Yrotation Xrotation
					JOINT rForeArm
					{
						OFFSET -10.139888 0.000000 0.000000 
						CHANNELS 3 Yrotation Zrotation Xrotation
						JOINT rHand
						{
							OFFSET -8.370511 0.000000 0.000000 
							CHANNELS 3 Zrotation Yrotation Xrotation
							End Site
							{
								OFFSET -4.083176 0.000000 0.000000 
							}
						}
					}
				}
			}
		}
	}
	JOINT lThigh
	{
		OFFSET 5.308129 -1.633274 1.361059 
		CHANNELS 3 Xrotation Zrotation Yrotation
		JOINT lShin
		{
			OFFSET -2.041588 -20.007561 0.000000 
			CHANNELS 3 Xrotation Zrotation Yrotation
			JOINT lFoot
			{
				OFFSET 0.000000 -19.190928 -1.224953 
				CHANNELS 3 Xrotation Yrotation Zrotation
				End Site
				{
					OFFSET 0.000000 -2.449906 4.627600 
				}
			}
		}
	}
	JOINT rThigh
	{
		OFFSET -5.308129 -1.633274 1.361059 
		CHANNELS 3 Xrotation Zrotation Yrotation
		JOINT rShin
		{
			OFFSET 2.041588 -20.007561 0.000000 
			CHANNELS 3 Xrotation Zrotation Yrotation
			JOINT rFoot
			{
				OFFSET 0.000000 -19.190928 -1.224953 
				CHANNELS 3 Xrotation Yrotation Zrotation
				End Site
				{
					OFFSET 0.000000 -2.449906 4.627600 
				}
			}
		}
	}
}
MOTION
Frames: 8
Frame Time: 0.033333
0.889726 49.779903 0.458744 -0.666021 0.877656 3.057030 0.000000 0.000000 0.000000 -3.979908 -0.927625 -0.879107 7.219741 -1.190281 -2.490914 7.080377 1.659133 -2.012289 -0.941227 3.991223 -3.053931 -9.288059 -8.852417 -14.238103 0.250922 -3.680760 33.066620 4.604415 -11.445524 -3.880591 -0.980335 -5.522013 -3.070323 12.083208 -4.592423 -6.039891 -0.192200 2.609616 25.903498 -5.915289 7.395171 -3.905095 3.959333 6.642832 6.068592 2.611969 -3.442058 2.470375 -4.850250 0.244840 -4.586692 6.266963 -11.802729 -9.453824 1.886458 0.677760 -3.319152 -5.057185 -0.510162 11.248549 
0.396808 49.797306 0.311144 -0.544689 0.995239 2.373537 0.000000 0.000000 0.000000 -3.957340 -0.898406 -0.478610 7.378246 -1.278531 -1.983018 6.583880 1.434778 -1.875390 -0.242706 4.814559 -3.048458 -7.535100 -7.154976 -15.932383 0.248191 -2.832252 32.203060 4.872519 -11.624228 -3.927990 -0.997518 -6.723890 -3.087308 10.543550 -6.325694 -6.955763 -0.194785 2.174842 24.449938 -5.250840 7.270617 -3.844091 4.772745 6.872773 6.153997 0.369151 -3.225811 3.333740 -3.438704 0.156820 -5.259296 5.630758 -11.049525 -8.538022 1.721793 0.260169 -5.055223 -4.328070 -0.428938 10.792771 
-0.204652 49.852520 0.143363 -0.646086 0.878722 1.172037 0.000000 0.000000 0.000000 -3.722321 -0.791014 0.117176 7.690784 -1.171613 -1.211283 5.897804 1.083571 -1.582302 0.541642 5.810481 -2.837354 -6.234425 -5.444002 -17.227856 0.256895 -2.122227 30.898731 5.212636 -11.604159 -3.958686 -0.552387 -7.344977 -2.864608 8.950291 -7.716924 -7.912838 -0.203606 1.764571 23.526182 -5.416582 7.260376 -3.855443 5.875724 7.428609 6.685438 -1.710366 -3.083846 4.141803 -2.145074 0.110055 -5.972230 5.103557 -10.149669 -7.637692 1.657762 0.027320 -5.047669 -3.953433 -0.368429 10.087005 
-0.857155 49.888741 -0.043388 -0.365770 0.800764 0.380959 0.000000 0.000000 0.000000 -3.842340 -0.791003 0.322235 7.876838 -1.181539 -0.752196 5.225245 0.859167 -1.259770 0.912462 6.485117 -2.968701 -5.004035 -3.572414 -18.119616 0.263254 -1.537825 29.854158 5.271367 -11.757063 -3.973361 -0.245843 -7.947163 -2.977596 7.568813 -8.579574 -8.693245 -0.220764 1.523618 22.195118 -5.455039 7.081448 -3.854707 5.838829 8.124607 7.054852 -2.353962 -2.936421 4.491129 -1.529474 0.087979 -6.777308 4.429143 -9.513118 -7.189023 1.495718 0.288604 -4.566250 -3.758792 -0.324277 9.106108 
-1.508230 49.897675 -0.251488 0.532537 0.634744 0.468829 0.000000 0.000000 0.000000 -4.522486 -0.839843 0.068352 7.670898 -1.074119 -0.781479 5.396707 0.781134 -0.986370 0.802833 7.484123 -3.605913 -4.241274 -1.924174 -18.091913 0.275639 -1.321365 29.041059 5.154665 -11.773995 -3.959752 -0.603647 -8.504423 -3.612831 6.416804 -8.984480 -9.023261 -0.233548 1.431155 21.715540 -5.250155 7.114612 -3.831034 4.597661 8.932820 6.920805 -2.167186 -2.515563 3.965594 -1.317173 0.092341 -7.725153 3.358467 -8.925223 -6.916976 1.366325 1.004106 -4.789854 -3.589697 -0.271323 7.950836 
-2.109565 49.912300 -0.461347 1.415710 0.478422 1.132855 0.000000 0.000000 0.000000 -5.198779 -0.839820 -0.429785 7.440906 -1.005679 -1.084160 5.940729 0.498004 -0.751925 0.503023 8.129670 -4.242596 -3.377113 -0.818185 -17.473322 0.287015 -1.382070 29.041746 4.831222 -11.950567 -3.924183 -1.251095 -9.073482 -4.262028 5.282034 -9.261532 -9.254738 -0.249948 1.307497 21.392225 -4.799566 7.289984 -3.796034 3.085576 9.501331 6.365921 -1.931074 -1.850776 3.313539 -1.026401 0.070957 -8.658359 2.545870 -8.548499 -7.042864 1.170878 1.960396 -4.531647 -3.623110 -0.228051 6.722791 
-2.647188 49.944912 -0.649294 1.697415 0.253781 1.796901 0.000000 0.000000 0.000000 -5.391156 -0.742130 -0.712957 7.461876 -0.839594 -1.396764 6.333996 0.292943 -0.761709 0.040598 8.801942 -4.418345 -2.863378 -0.166368 -17.317383 0.307860 -1.327662 29.285368 4.459037 -12.149859 -3.877749 -1.740567 -9.415882 -4.463505 4.213048 -9.635533 -9.380072 -0.255331 1.289892 20.171185 -5.079865 7.056826 -3.814584 2.097553 10.004290 5.979534 -1.346794 -1.285903 2.092741 -1.064534 0.092678 -9.436473 2.350572 -8.108515 -7.249424 0.867431 2.811438 -4.624507 -3.471304 -0.213943 5.648170 
-3.080562 49.989830 -0.788986 1.252039 0.068329 1.708995 0.000000 0.000000 0.000000 -5.024994 -0.537092 -0.459056 7.796199 -0.595561 -1.250135 6.180958 0.048823 -0.800781 -0.041142 9.283424 -4.047275 -2.542445 -0.065925 -17.767635 0.326295 -1.246471 28.708256 4.477181 -12.442299 -3.891431 -1.486983 -9.567496 -4.109163 3.259546 -10.287639 -9.818366 -0.264000 1.199633 18.803043 -5.948885 6.804580 -3.892534 2.097499 10.364499 6.099292 -0.342006 -1.060289 1.334957 -1.691030 0.146544 -9.780666 2.712055 -7.562900 -7.289552 0.673354 3.258258 -4.407310 -3.326049 -0.179239 4.836490 
